<svg xmlns="http://www.w3.org/2000/svg" width="800" height="600" viewBox="0 0 800 600">
  <defs>
    <linearGradient id="bg" x1="0%" y1="0%" x2="100%" y2="100%">
      <stop offset="0%" style="stop-color:#3d1a05"/>
      <stop offset="50%" style="stop-color:#8b4a15"/>
      <stop offset="100%" style="stop-color:#c47820"/>
    </linearGradient>
  </defs>
  <rect width="800" height="600" fill="url(#bg)"/>
  <!-- Misky s kořením -->
  <ellipse cx="200" cy="420" rx="120" ry="40" fill="#7a2e00" opacity="0.8"/>
  <ellipse cx="200" cy="405" rx="115" ry="35" fill="#c44010"/>
  <ellipse cx="200" cy="400" rx="108" ry="30" fill="#e05520" opacity="0.9"/>
  <ellipse cx="400" cy="430" rx="110" ry="38" fill="#8b6500" opacity="0.8"/>
  <ellipse cx="400" cy="415" rx="105" ry="33" fill="#d4a010"/>
  <ellipse cx="400" cy="410" rx="98" ry="28" fill="#f0c020" opacity="0.9"/>
  <ellipse cx="600" cy="415" rx="115" ry="38" fill="#4a1a00" opacity="0.8"/>
  <ellipse cx="600" cy="400" rx="108" ry="33" fill="#8b3005"/>
  <ellipse cx="600" cy="395" rx="100" ry="28" fill="#c04015" opacity="0.9"/>
  <!-- Tečky / zrnka koření -->
  <circle cx="200" cy="395" r="4" fill="#ff8040" opacity="0.8"/>
  <circle cx="185" cy="398" r="3" fill="#ff6020" opacity="0.7"/>
  <circle cx="215" cy="392" r="3.5" fill="#ff9050" opacity="0.8"/>
  <circle cx="400" cy="405" r="4" fill="#ffe050" opacity="0.8"/>
  <circle cx="385" cy="408" r="3" fill="#ffd030" opacity="0.7"/>
  <circle cx="415" cy="402" r="3.5" fill="#ffea60" opacity="0.8"/>
  <circle cx="600" cy="390" r="4" fill="#cc3010" opacity="0.9"/>
  <circle cx="585" cy="393" r="3" fill="#aa2008" opacity="0.8"/>
  <circle cx="615" cy="387" r="3.5" fill="#dd4020" opacity="0.9"/>
  <!-- Nápis -->
  <text x="400" y="200" font-family="Georgia, serif" font-size="36" font-style="italic" fill="white" opacity="0.12" text-anchor="middle">Orientální trh</text>
  <text x="400" y="250" font-family="Georgia, serif" font-size="18" fill="white" opacity="0.08" text-anchor="middle" letter-spacing="5">DUBAI SPICE SOUK</text>
</svg>
